<svg width="1474" height="753" viewBox="0 0 1474 753" fill="none" xmlns="http://www.w3.org/2000/svg">
<g clip-path="url(#clip0_1413_1514)">
<rect width="1474" height="753" fill="white"/>
<path d="M206 116L206 182" stroke="#007BFF" stroke-width="4"/>
<path d="M205.778 175.06L198 175.06L205.772 193L213.438 175.06L205.778 175.06Z" fill="#007BFF" stroke="#007BFF" stroke-width="4"/>
<path d="M1271 361L1271 427" stroke="#007BFF" stroke-width="4"/>
<path d="M1270.78 420.06L1263 420.06L1270.77 438L1278.44 420.06L1270.78 420.06Z" fill="#007BFF" stroke="#007BFF" stroke-width="4"/>
<path d="M392 278L534 278" stroke="#007BFF" stroke-width="4"/>
<path d="M527.06 278.659L527.06 286.437L545 278.666L527.06 271L527.06 278.659Z" fill="#007BFF" stroke="#007BFF" stroke-width="4"/>
<path d="M925 278L1067 278" stroke="#007BFF" stroke-width="4"/>
<path d="M1060.06 278.659L1060.06 286.437L1078 278.666L1060.06 271L1060.06 278.659Z" fill="#007BFF" stroke="#007BFF" stroke-width="4"/>
<path d="M550 652L408 652" stroke="#007BFF" stroke-width="4"/>
<path d="M414.94 652.659L414.94 660.437L397 652.666L414.94 645L414.94 652.659Z" fill="#007BFF" stroke="#007BFF" stroke-width="4"/>
<path d="M1270.5 599V652H941" stroke="#007BFF" stroke-width="4"/>
<path d="M947.94 652.659L947.94 660.437L930 652.666L947.94 645L947.94 652.659Z" fill="#007BFF" stroke="#007BFF" stroke-width="4"/>
<rect x="19" y="200" width="371" height="159" rx="14" stroke="#007BFF" stroke-width="4"/>
<rect x="552" y="200" width="371" height="159" rx="14" stroke="#007BFF" stroke-width="4"/>
<rect x="1085" y="200" width="371" height="159" rx="14" stroke="#007BFF" stroke-width="4"/>
<rect x="552" y="573" width="371" height="159" rx="14" stroke="#007BFF" stroke-width="4"/>
<rect x="19" y="573" width="371" height="159" rx="14" stroke="#007BFF" stroke-width="4"/>
<path d="M135.209 35.88C134.289 39.2 131.689 41.24 127.689 41.24C121.049 41.24 118.129 35.8 118.129 29.72C118.129 23.68 121.089 18.2 127.729 18.2C131.689 18.2 133.809 19.88 134.889 22.92H138.689C137.529 18 133.529 14.92 127.729 14.92C119.249 14.92 114.489 21.24 114.489 29.72C114.489 38.2 119.169 44.52 127.689 44.52C133.969 44.52 137.849 40.96 139.009 35.88H135.209ZM152.96 23.32C146.64 23.32 143.04 27.96 143.04 33.92C143.04 39.88 146.64 44.52 152.96 44.52C159.24 44.52 162.88 39.88 162.88 33.92C162.88 27.96 159.24 23.32 152.96 23.32ZM152.96 41.56C148.48 41.56 146.44 37.88 146.44 33.92C146.44 29.96 148.48 26.28 152.96 26.28C157.4 26.28 159.48 29.96 159.48 33.92C159.48 37.88 157.4 41.56 152.96 41.56ZM186.106 44V31.2C186.106 26.36 183.386 23.32 178.426 23.32C175.706 23.32 173.466 24.44 172.346 26H171.466V23.84H168.186V44H171.586V33.08C171.586 29.52 173.986 26.36 177.586 26.36C180.986 26.36 182.706 28.2 182.706 31.92V44H186.106ZM197.007 23.84V17.76H193.607V23.84H190.127V26.8H193.607V38.36C193.607 42.64 196.167 44 200.527 44H202.087V40.96H200.607C197.887 40.96 197.007 39.92 197.007 37.88V26.8H202.087V23.84H197.007ZM220.518 44H223.718V30.28C223.718 25.76 220.478 23.32 215.398 23.32C210.878 23.32 207.678 25.48 207.398 29.2H210.798C210.958 27.44 212.478 26.28 215.478 26.28C218.998 26.28 220.398 28.04 220.398 30.48V31.28H213.838C208.238 31.28 206.118 34.72 206.118 37.96C206.118 41.4 208.718 44.52 213.358 44.52C216.238 44.52 218.398 43.44 219.638 41.88H220.518V44ZM214.198 41.56C211.198 41.56 209.518 40.12 209.518 37.84C209.518 35.44 211.038 34 214.358 34H220.398V35.84C220.398 39.04 217.558 41.56 214.198 41.56ZM233.544 18.6V14.92H229.944V18.6H233.544ZM233.424 23.84H230.024V44H233.424V23.84ZM258.02 44V31.2C258.02 26.36 255.3 23.32 250.34 23.32C247.62 23.32 245.38 24.44 244.26 26H243.38V23.84H240.1V44H243.5V33.08C243.5 29.52 245.9 26.36 249.5 26.36C252.9 26.36 254.62 28.2 254.62 31.92V44H258.02ZM281.721 32.72C281.601 27.76 278.721 23.32 272.721 23.32C266.601 23.32 263.001 27.52 263.001 33.72C263.001 39.92 266.521 44.52 272.801 44.52C277.801 44.52 280.721 41.88 281.361 38.44H277.921C277.321 40.36 275.641 41.56 272.801 41.56C268.641 41.56 266.481 38.68 266.361 33.88H281.721V32.72ZM272.641 26.28C276.041 26.28 278.001 28.48 278.201 31.04H266.561C267.001 28.48 269.001 26.28 272.641 26.28ZM298.534 23.84H297.014C294.094 23.84 292.174 25 291.174 26.24H290.294V23.84H287.014V44H290.414V33.92C290.414 29.48 292.854 27.04 296.854 27.04H298.534V23.84ZM145.954 80.44C143.914 80.12 142.914 79.52 142.914 77.96C142.914 76.24 144.674 75.28 147.274 75.28C149.794 75.28 151.714 76.16 151.994 78.08H155.394C154.954 74.56 152.194 72.32 147.434 72.32C141.994 72.32 139.474 74.92 139.474 78.28C139.474 81.32 141.434 82.84 144.314 83.36L148.834 84.12C151.394 84.56 152.514 85.52 152.514 87.28C152.514 89.48 150.514 90.56 147.474 90.56C144.434 90.56 142.434 89.44 142.114 87.16H138.674C139.114 91 141.914 93.52 147.634 93.52C153.074 93.52 155.914 90.52 155.914 87.2C155.914 83.52 153.674 81.72 150.154 81.12L147.874 80.76L145.954 80.44ZM165.581 72.84V66.76H162.181V72.84H158.701V75.8H162.181V87.36C162.181 91.64 164.741 93 169.101 93H170.661V89.96H169.181C166.461 89.96 165.581 88.92 165.581 86.88V75.8H170.661V72.84H165.581ZM189.093 93H192.293V79.28C192.293 74.76 189.053 72.32 183.973 72.32C179.453 72.32 176.253 74.48 175.973 78.2H179.373C179.533 76.44 181.053 75.28 184.053 75.28C187.573 75.28 188.973 77.04 188.973 79.48V80.28H182.413C176.813 80.28 174.693 83.72 174.693 86.96C174.693 90.4 177.293 93.52 181.933 93.52C184.813 93.52 186.973 92.44 188.213 90.88H189.093V93ZM182.773 90.56C179.773 90.56 178.093 89.12 178.093 86.84C178.093 84.44 179.613 83 182.933 83H188.973V84.84C188.973 88.04 186.133 90.56 182.773 90.56ZM210.038 72.84H208.518C205.598 72.84 203.678 74 202.678 75.24H201.798V72.84H198.518V93H201.918V82.92C201.918 78.48 204.358 76.04 208.358 76.04H210.038V72.84ZM220.464 72.84V66.76H217.064V72.84H213.584V75.8H217.064V87.36C217.064 91.64 219.624 93 223.984 93H225.544V89.96H224.064C221.344 89.96 220.464 88.92 220.464 86.88V75.8H225.544V72.84H220.464ZM248.303 81.72C248.183 76.76 245.303 72.32 239.303 72.32C233.183 72.32 229.583 76.52 229.583 82.72C229.583 88.92 233.103 93.52 239.383 93.52C244.383 93.52 247.303 90.88 247.943 87.44H244.503C243.903 89.36 242.223 90.56 239.383 90.56C235.223 90.56 233.063 87.68 232.943 82.88H248.303V81.72ZM239.223 75.28C242.623 75.28 244.583 77.48 244.783 80.04H233.143C233.583 77.48 235.583 75.28 239.223 75.28ZM268.236 63.92V75H267.356C266.236 73.56 264.396 72.32 261.196 72.32C255.636 72.32 252.356 76.84 252.356 82.92C252.356 88.88 255.636 93.52 261.196 93.52C264.396 93.52 266.356 92.24 267.476 90.84H268.356V93H271.636V63.92H268.236ZM261.956 90.56C257.916 90.56 255.756 87.4 255.756 82.92C255.756 78.44 257.916 75.28 261.956 75.28C266.436 75.28 268.276 78.96 268.276 82.92C268.276 86.88 266.436 90.56 261.956 90.56Z" fill="#274867"/>
<path d="M1164.41 489.48C1166.49 488.36 1167.53 486.24 1167.53 483.68C1167.53 479.76 1164.45 476.44 1158.41 476.44H1145.97V505H1158.73C1165.25 505 1168.41 501.52 1168.41 496.96C1168.41 494.04 1166.81 491.48 1164.41 490.36V489.48ZM1149.57 479.64H1158.25C1161.13 479.64 1163.89 480.76 1163.89 484C1163.89 487.52 1161.49 488.56 1158.33 488.56H1149.57V479.64ZM1149.57 501.8V491.72H1158.53C1161.89 491.72 1164.77 493 1164.77 496.68C1164.77 500.64 1161.73 501.8 1158.49 501.8H1149.57ZM1191.14 493.72C1191.02 488.76 1188.14 484.32 1182.13 484.32C1176.02 484.32 1172.42 488.52 1172.42 494.72C1172.42 500.92 1175.94 505.52 1182.22 505.52C1187.22 505.52 1190.14 502.88 1190.78 499.44H1187.34C1186.74 501.36 1185.06 502.56 1182.22 502.56C1178.06 502.56 1175.9 499.68 1175.78 494.88H1191.14V493.72ZM1182.06 487.28C1185.46 487.28 1187.42 489.48 1187.62 492.04H1175.98C1176.42 489.48 1178.42 487.28 1182.06 487.28ZM1209.27 505H1212.47V491.28C1212.47 486.76 1209.23 484.32 1204.15 484.32C1199.63 484.32 1196.43 486.48 1196.15 490.2H1199.55C1199.71 488.44 1201.23 487.28 1204.23 487.28C1207.75 487.28 1209.15 489.04 1209.15 491.48V492.28H1202.59C1196.99 492.28 1194.87 495.72 1194.87 498.96C1194.87 502.4 1197.47 505.52 1202.11 505.52C1204.99 505.52 1207.15 504.44 1208.39 502.88H1209.27V505ZM1202.95 502.56C1199.95 502.56 1198.27 501.12 1198.27 498.84C1198.27 496.44 1199.79 495 1203.11 495H1209.15V496.84C1209.15 500.04 1206.31 502.56 1202.95 502.56ZM1236.61 505V492.2C1236.61 487.36 1233.89 484.32 1228.93 484.32C1226.21 484.32 1223.97 485.44 1222.85 487H1221.97V484.84H1218.69V505H1222.09V494.08C1222.09 490.52 1224.49 487.36 1228.09 487.36C1231.49 487.36 1233.21 489.2 1233.21 492.92V505H1236.61ZM1257.57 479.6V475.92H1253.97V479.6H1257.57ZM1257.45 484.84H1254.05V505H1257.45V484.84ZM1269.72 492.44C1267.68 492.12 1266.68 491.52 1266.68 489.96C1266.68 488.24 1268.44 487.28 1271.04 487.28C1273.56 487.28 1275.48 488.16 1275.76 490.08H1279.16C1278.72 486.56 1275.96 484.32 1271.2 484.32C1265.76 484.32 1263.24 486.92 1263.24 490.28C1263.24 493.32 1265.2 494.84 1268.08 495.36L1272.6 496.12C1275.16 496.56 1276.28 497.52 1276.28 499.28C1276.28 501.48 1274.28 502.56 1271.24 502.56C1268.2 502.56 1266.2 501.44 1265.88 499.16H1262.44C1262.88 503 1265.68 505.52 1271.4 505.52C1276.84 505.52 1279.68 502.52 1279.68 499.2C1279.68 495.52 1277.44 493.72 1273.92 493.12L1271.64 492.76L1269.72 492.44ZM1307.32 484.84H1305.8C1302.88 484.84 1300.96 486 1299.96 487.24H1299.08V484.84H1295.8V505H1299.2V494.92C1299.2 490.48 1301.64 488.04 1305.64 488.04H1307.32V484.84ZM1329.26 493.72C1329.14 488.76 1326.26 484.32 1320.26 484.32C1314.14 484.32 1310.54 488.52 1310.54 494.72C1310.54 500.92 1314.06 505.52 1320.34 505.52C1325.34 505.52 1328.26 502.88 1328.9 499.44H1325.46C1324.86 501.36 1323.18 502.56 1320.34 502.56C1316.18 502.56 1314.02 499.68 1313.9 494.88H1329.26V493.72ZM1320.18 487.28C1323.58 487.28 1325.54 489.48 1325.74 492.04H1314.1C1314.54 489.48 1316.54 487.28 1320.18 487.28ZM1347.39 505H1350.59V491.28C1350.59 486.76 1347.35 484.32 1342.27 484.32C1337.75 484.32 1334.55 486.48 1334.27 490.2H1337.67C1337.83 488.44 1339.35 487.28 1342.35 487.28C1345.87 487.28 1347.27 489.04 1347.27 491.48V492.28H1340.71C1335.11 492.28 1332.99 495.72 1332.99 498.96C1332.99 502.4 1335.59 505.52 1340.23 505.52C1343.11 505.52 1345.27 504.44 1346.51 502.88H1347.39V505ZM1341.07 502.56C1338.07 502.56 1336.39 501.12 1336.39 498.84C1336.39 496.44 1337.91 495 1341.23 495H1347.27V496.84C1347.27 500.04 1344.43 502.56 1341.07 502.56ZM1371.46 475.92V487H1370.58C1369.46 485.56 1367.62 484.32 1364.42 484.32C1358.86 484.32 1355.58 488.84 1355.58 494.92C1355.58 500.88 1358.86 505.52 1364.42 505.52C1367.62 505.52 1369.58 504.24 1370.7 502.84H1371.58V505H1374.86V475.92H1371.46ZM1365.18 502.56C1361.14 502.56 1358.98 499.4 1358.98 494.92C1358.98 490.44 1361.14 487.28 1365.18 487.28C1369.66 487.28 1371.5 490.96 1371.5 494.92C1371.5 498.88 1369.66 502.56 1365.18 502.56ZM1386.87 513L1398.95 484.84H1395.39L1389.79 498.12H1388.79L1382.63 484.84H1378.99L1387.59 503.12L1383.43 513H1386.87ZM1218.11 536.8V533.84H1212.63V531.64C1212.63 529.56 1213.51 527.88 1216.19 527.88H1218.11V524.92H1216.15C1211.79 524.92 1209.23 526.92 1209.23 531.52V533.84H1205.75V536.8H1209.23V554H1212.63V536.8H1218.11ZM1230.81 533.32C1224.49 533.32 1220.89 537.96 1220.89 543.92C1220.89 549.88 1224.49 554.52 1230.81 554.52C1237.09 554.52 1240.73 549.88 1240.73 543.92C1240.73 537.96 1237.09 533.32 1230.81 533.32ZM1230.81 551.56C1226.33 551.56 1224.29 547.88 1224.29 543.92C1224.29 539.96 1226.33 536.28 1230.81 536.28C1235.25 536.28 1237.33 539.96 1237.33 543.92C1237.33 547.88 1235.25 551.56 1230.81 551.56ZM1257.56 533.84H1256.04C1253.12 533.84 1251.2 535 1250.2 536.24H1249.32V533.84H1246.04V554H1249.44V543.92C1249.44 539.48 1251.88 537.04 1255.88 537.04H1257.56V533.84ZM1272.83 533.84V546.64C1272.83 551.48 1275.55 554.52 1280.51 554.52C1283.23 554.52 1285.47 553.4 1286.59 551.84H1287.47V554H1290.75V533.84H1287.35V544.76C1287.35 548.4 1284.91 551.48 1281.35 551.48C1277.95 551.48 1276.23 549.64 1276.23 545.92V533.84H1272.83ZM1302.89 541.44C1300.85 541.12 1299.85 540.52 1299.85 538.96C1299.85 537.24 1301.61 536.28 1304.21 536.28C1306.73 536.28 1308.65 537.16 1308.93 539.08H1312.33C1311.89 535.56 1309.13 533.32 1304.37 533.32C1298.93 533.32 1296.41 535.92 1296.41 539.28C1296.41 542.32 1298.37 543.84 1301.25 544.36L1305.77 545.12C1308.33 545.56 1309.45 546.52 1309.45 548.28C1309.45 550.48 1307.45 551.56 1304.41 551.56C1301.37 551.56 1299.37 550.44 1299.05 548.16H1295.61C1296.05 552 1298.85 554.52 1304.57 554.52C1310.01 554.52 1312.85 551.52 1312.85 548.2C1312.85 544.52 1310.61 542.72 1307.09 542.12L1304.81 541.76L1302.89 541.44ZM1335.31 542.72C1335.19 537.76 1332.31 533.32 1326.31 533.32C1320.19 533.32 1316.59 537.52 1316.59 543.72C1316.59 549.92 1320.11 554.52 1326.39 554.52C1331.39 554.52 1334.31 551.88 1334.95 548.44H1331.51C1330.91 550.36 1329.23 551.56 1326.39 551.56C1322.23 551.56 1320.07 548.68 1319.95 543.88H1335.31V542.72ZM1326.23 536.28C1329.63 536.28 1331.59 538.48 1331.79 541.04H1320.15C1320.59 538.48 1322.59 536.28 1326.23 536.28Z" fill="#274867"/>
<path d="M99.1269 277.48C101.207 276.36 102.247 274.24 102.247 271.68C102.247 267.76 99.1669 264.44 93.1269 264.44H80.6869V293H93.4469C99.9669 293 103.127 289.52 103.127 284.96C103.127 282.04 101.527 279.48 99.1269 278.36V277.48ZM84.2869 267.64H92.9669C95.8469 267.64 98.6069 268.76 98.6069 272C98.6069 275.52 96.2069 276.56 93.0469 276.56H84.2869V267.64ZM84.2869 289.8V279.72H93.2469C96.6069 279.72 99.4869 281 99.4869 284.68C99.4869 288.64 96.4469 289.8 93.2069 289.8H84.2869ZM125.854 281.72C125.734 276.76 122.854 272.32 116.854 272.32C110.734 272.32 107.134 276.52 107.134 282.72C107.134 288.92 110.654 293.52 116.934 293.52C121.934 293.52 124.854 290.88 125.494 287.44H122.054C121.454 289.36 119.774 290.56 116.934 290.56C112.774 290.56 110.614 287.68 110.494 282.88H125.854V281.72ZM116.774 275.28C120.174 275.28 122.134 277.48 122.334 280.04H110.694C111.134 277.48 113.134 275.28 116.774 275.28ZM143.987 293H147.187V279.28C147.187 274.76 143.947 272.32 138.867 272.32C134.347 272.32 131.147 274.48 130.867 278.2H134.267C134.427 276.44 135.947 275.28 138.947 275.28C142.467 275.28 143.867 277.04 143.867 279.48V280.28H137.307C131.707 280.28 129.587 283.72 129.587 286.96C129.587 290.4 132.187 293.52 136.827 293.52C139.707 293.52 141.867 292.44 143.107 290.88H143.987V293ZM137.667 290.56C134.667 290.56 132.987 289.12 132.987 286.84C132.987 284.44 134.507 283 137.827 283H143.867V284.84C143.867 288.04 141.027 290.56 137.667 290.56ZM171.333 293V280.2C171.333 275.36 168.613 272.32 163.653 272.32C160.933 272.32 158.693 273.44 157.573 275H156.693V272.84H153.413V293H156.813V282.08C156.813 278.52 159.213 275.36 162.813 275.36C166.213 275.36 167.933 277.2 167.933 280.92V293H171.333ZM202.326 286.92C201.806 289.16 200.126 290.56 197.246 290.56C192.726 290.56 190.846 286.88 190.846 282.84C190.846 278.84 192.686 275.28 197.246 275.28C200.006 275.28 201.566 276.64 202.206 278.68H205.606C204.926 274.96 202.046 272.32 197.246 272.32C190.966 272.32 187.446 276.84 187.446 282.92C187.446 288.88 190.966 293.52 197.246 293.52C201.926 293.52 204.966 290.88 205.726 286.92H202.326ZM222.316 272.84H220.796C217.876 272.84 215.956 274 214.956 275.24H214.076V272.84H210.796V293H214.196V282.92C214.196 278.48 216.636 276.04 220.636 276.04H222.316V272.84ZM244.252 281.72C244.132 276.76 241.252 272.32 235.252 272.32C229.132 272.32 225.532 276.52 225.532 282.72C225.532 288.92 229.052 293.52 235.332 293.52C240.332 293.52 243.252 290.88 243.892 287.44H240.452C239.852 289.36 238.172 290.56 235.332 290.56C231.172 290.56 229.012 287.68 228.892 282.88H244.252V281.72ZM235.172 275.28C238.572 275.28 240.532 277.48 240.732 280.04H229.092C229.532 277.48 231.532 275.28 235.172 275.28ZM262.386 293H265.586V279.28C265.586 274.76 262.346 272.32 257.266 272.32C252.746 272.32 249.546 274.48 249.266 278.2H252.666C252.826 276.44 254.346 275.28 257.346 275.28C260.866 275.28 262.266 277.04 262.266 279.48V280.28H255.706C250.106 280.28 247.986 283.72 247.986 286.96C247.986 290.4 250.586 293.52 255.226 293.52C258.106 293.52 260.266 292.44 261.506 290.88H262.386V293ZM256.066 290.56C253.066 290.56 251.386 289.12 251.386 286.84C251.386 284.44 252.906 283 256.226 283H262.266V284.84C262.266 288.04 259.426 290.56 256.066 290.56ZM276.491 272.84V266.76H273.091V272.84H269.611V275.8H273.091V287.36C273.091 291.64 275.651 293 280.011 293H281.571V289.96H280.091C277.371 289.96 276.491 288.92 276.491 286.88V275.8H281.571V272.84H276.491ZM304.33 281.72C304.21 276.76 301.33 272.32 295.33 272.32C289.21 272.32 285.61 276.52 285.61 282.72C285.61 288.92 289.13 293.52 295.41 293.52C300.41 293.52 303.33 290.88 303.97 287.44H300.53C299.93 289.36 298.25 290.56 295.41 290.56C291.25 290.56 289.09 287.68 288.97 282.88H304.33V281.72ZM295.25 275.28C298.65 275.28 300.61 277.48 300.81 280.04H289.17C289.61 277.48 291.61 275.28 295.25 275.28ZM324.264 263.92V275H323.384C322.264 273.56 320.424 272.32 317.224 272.32C311.664 272.32 308.384 276.84 308.384 282.92C308.384 288.88 311.664 293.52 317.224 293.52C320.424 293.52 322.384 292.24 323.504 290.84H324.384V293H327.664V263.92H324.264ZM317.984 290.56C313.944 290.56 311.784 287.4 311.784 282.92C311.784 278.44 313.944 275.28 317.984 275.28C322.464 275.28 324.304 278.96 324.304 282.92C324.304 286.88 322.464 290.56 317.984 290.56Z" fill="#274867"/>
<path d="M605.074 239.44V268H615.754C624.514 268 628.954 262.28 628.954 253.72C628.954 245.12 624.514 239.44 615.754 239.44H605.074ZM608.674 264.72V242.72H615.754C622.674 242.72 625.314 247.76 625.314 253.72C625.314 259.68 622.674 264.72 615.754 264.72H608.674ZM651.92 256.72C651.8 251.76 648.92 247.32 642.92 247.32C636.8 247.32 633.2 251.52 633.2 257.72C633.2 263.92 636.72 268.52 643 268.52C648 268.52 650.92 265.88 651.56 262.44H648.12C647.52 264.36 645.84 265.56 643 265.56C638.84 265.56 636.68 262.68 636.56 257.88H651.92V256.72ZM642.84 250.28C646.24 250.28 648.2 252.48 648.4 255.04H636.76C637.2 252.48 639.2 250.28 642.84 250.28ZM666.894 250.28C670.934 250.28 673.094 253.44 673.094 257.92C673.094 262.4 670.934 265.56 666.894 265.56C662.414 265.56 660.574 261.88 660.574 257.92C660.574 253.96 662.414 250.28 666.894 250.28ZM657.214 247.84V276H660.614V265.84H661.494C662.574 267.28 664.454 268.52 667.654 268.52C673.214 268.52 676.494 264 676.494 257.92C676.494 251.96 673.214 247.32 667.654 247.32C664.454 247.32 662.494 248.6 661.374 250H660.494V247.84H657.214ZM699.303 256.72C699.183 251.76 696.303 247.32 690.303 247.32C684.183 247.32 680.583 251.52 680.583 257.72C680.583 263.92 684.103 268.52 690.383 268.52C695.383 268.52 698.303 265.88 698.943 262.44H695.503C694.903 264.36 693.223 265.56 690.383 265.56C686.223 265.56 684.063 262.68 683.943 257.88H699.303V256.72ZM690.223 250.28C693.623 250.28 695.583 252.48 695.783 255.04H684.143C684.583 252.48 686.583 250.28 690.223 250.28ZM722.516 268V255.2C722.516 250.36 719.796 247.32 714.836 247.32C712.116 247.32 709.876 248.44 708.756 250H707.876V247.84H704.596V268H707.996V257.08C707.996 253.52 710.396 250.36 713.996 250.36C717.396 250.36 719.116 252.2 719.116 255.92V268H722.516ZM743.377 238.92V250H742.497C741.377 248.56 739.537 247.32 736.337 247.32C730.777 247.32 727.497 251.84 727.497 257.92C727.497 263.88 730.777 268.52 736.337 268.52C739.537 268.52 741.497 267.24 742.617 265.84H743.497V268H746.777V238.92H743.377ZM737.097 265.56C733.057 265.56 730.897 262.4 730.897 257.92C730.897 253.44 733.057 250.28 737.097 250.28C741.577 250.28 743.417 253.96 743.417 257.92C743.417 261.88 741.577 265.56 737.097 265.56ZM770.826 256.72C770.706 251.76 767.826 247.32 761.826 247.32C755.706 247.32 752.106 251.52 752.106 257.72C752.106 263.92 755.626 268.52 761.906 268.52C766.906 268.52 769.826 265.88 770.466 262.44H767.026C766.426 264.36 764.746 265.56 761.906 265.56C757.746 265.56 755.586 262.68 755.466 257.88H770.826V256.72ZM761.746 250.28C765.146 250.28 767.106 252.48 767.306 255.04H755.666C756.106 252.48 758.106 250.28 761.746 250.28ZM794.04 268V255.2C794.04 250.36 791.32 247.32 786.36 247.32C783.64 247.32 781.4 248.44 780.28 250H779.4V247.84H776.12V268H779.52V257.08C779.52 253.52 781.92 250.36 785.52 250.36C788.92 250.36 790.64 252.2 790.64 255.92V268H794.04ZM813.9 261.92C813.38 264.16 811.7 265.56 808.82 265.56C804.3 265.56 802.42 261.88 802.42 257.84C802.42 253.84 804.26 250.28 808.82 250.28C811.58 250.28 813.14 251.64 813.78 253.68H817.18C816.5 249.96 813.62 247.32 808.82 247.32C802.54 247.32 799.02 251.84 799.02 257.92C799.02 263.88 802.54 268.52 808.82 268.52C813.5 268.52 816.54 265.88 817.3 261.92H813.9ZM825.97 242.6V238.92H822.37V242.6H825.97ZM825.85 247.84H822.45V268H825.85V247.84ZM850.006 256.72C849.886 251.76 847.006 247.32 841.006 247.32C834.886 247.32 831.286 251.52 831.286 257.72C831.286 263.92 834.806 268.52 841.086 268.52C846.086 268.52 849.006 265.88 849.646 262.44H846.206C845.606 264.36 843.926 265.56 841.086 265.56C836.926 265.56 834.766 262.68 834.646 257.88H850.006V256.72ZM840.926 250.28C844.326 250.28 846.286 252.48 846.486 255.04H834.846C835.286 252.48 837.286 250.28 840.926 250.28ZM860.9 255.44C858.86 255.12 857.86 254.52 857.86 252.96C857.86 251.24 859.62 250.28 862.22 250.28C864.74 250.28 866.66 251.16 866.94 253.08H870.34C869.9 249.56 867.14 247.32 862.38 247.32C856.94 247.32 854.42 249.92 854.42 253.28C854.42 256.32 856.38 257.84 859.26 258.36L863.78 259.12C866.34 259.56 867.46 260.52 867.46 262.28C867.46 264.48 865.46 265.56 862.42 265.56C859.38 265.56 857.38 264.44 857.06 262.16H853.62C854.06 266 856.86 268.52 862.58 268.52C868.02 268.52 870.86 265.52 870.86 262.2C870.86 258.52 868.62 256.72 865.1 256.12L862.82 255.76L860.9 255.44ZM667.786 291.6V287.92H664.186V291.6H667.786ZM667.666 296.84H664.266V317H667.666V296.84ZM692.263 317V304.2C692.263 299.36 689.543 296.32 684.583 296.32C681.863 296.32 679.623 297.44 678.503 299H677.623V296.84H674.343V317H677.743V306.08C677.743 302.52 680.143 299.36 683.743 299.36C687.143 299.36 688.863 301.2 688.863 304.92V317H692.263ZM702.523 291.6V287.92H698.923V291.6H702.523ZM695.963 325C700.123 325 702.443 322.52 702.443 318.08V296.84H699.043V317.96C699.043 320.56 698.043 322.04 695.283 322.04H693.443V325H695.963ZM726.549 305.72C726.429 300.76 723.549 296.32 717.549 296.32C711.429 296.32 707.829 300.52 707.829 306.72C707.829 312.92 711.349 317.52 717.629 317.52C722.629 317.52 725.549 314.88 726.189 311.44H722.749C722.149 313.36 720.469 314.56 717.629 314.56C713.469 314.56 711.309 311.68 711.189 306.88H726.549V305.72ZM717.469 299.28C720.869 299.28 722.829 301.48 723.029 304.04H711.389C711.829 301.48 713.829 299.28 717.469 299.28ZM745.483 310.92C744.963 313.16 743.283 314.56 740.403 314.56C735.883 314.56 734.003 310.88 734.003 306.84C734.003 302.84 735.843 299.28 740.403 299.28C743.163 299.28 744.723 300.64 745.363 302.68H748.762C748.083 298.96 745.203 296.32 740.403 296.32C734.123 296.32 730.603 300.84 730.603 306.92C730.603 312.88 734.123 317.52 740.403 317.52C745.083 317.52 748.123 314.88 748.883 310.92H745.483ZM758.632 296.84V290.76H755.232V296.84H751.752V299.8H755.232V311.36C755.232 315.64 757.792 317 762.152 317H763.712V313.96H762.232C759.512 313.96 758.632 312.92 758.632 310.88V299.8H763.712V296.84H758.632ZM786.471 305.72C786.351 300.76 783.471 296.32 777.471 296.32C771.351 296.32 767.751 300.52 767.751 306.72C767.751 312.92 771.271 317.52 777.551 317.52C782.551 317.52 785.471 314.88 786.111 311.44H782.671C782.071 313.36 780.391 314.56 777.551 314.56C773.391 314.56 771.231 311.68 771.111 306.88H786.471V305.72ZM777.391 299.28C780.791 299.28 782.751 301.48 782.951 304.04H771.311C771.751 301.48 773.751 299.28 777.391 299.28ZM806.404 287.92V299H805.524C804.404 297.56 802.564 296.32 799.364 296.32C793.804 296.32 790.524 300.84 790.524 306.92C790.524 312.88 793.804 317.52 799.364 317.52C802.564 317.52 804.524 316.24 805.644 314.84H806.524V317H809.804V287.92H806.404ZM800.124 314.56C796.084 314.56 793.924 311.4 793.924 306.92C793.924 302.44 796.084 299.28 800.124 299.28C804.604 299.28 806.444 302.96 806.444 306.92C806.444 310.88 804.604 314.56 800.124 314.56Z" fill="#274867"/>
<path d="M1148.24 278.48C1150.32 277.36 1151.36 275.24 1151.36 272.68C1151.36 268.76 1148.28 265.44 1142.24 265.44H1129.8V294H1142.56C1149.08 294 1152.24 290.52 1152.24 285.96C1152.24 283.04 1150.64 280.48 1148.24 279.36V278.48ZM1133.4 268.64H1142.08C1144.96 268.64 1147.72 269.76 1147.72 273C1147.72 276.52 1145.32 277.56 1142.16 277.56H1133.4V268.64ZM1133.4 290.8V280.72H1142.36C1145.72 280.72 1148.6 282 1148.6 285.68C1148.6 289.64 1145.56 290.8 1142.32 290.8H1133.4ZM1174.97 282.72C1174.85 277.76 1171.97 273.32 1165.97 273.32C1159.85 273.32 1156.25 277.52 1156.25 283.72C1156.25 289.92 1159.77 294.52 1166.05 294.52C1171.05 294.52 1173.97 291.88 1174.61 288.44H1171.17C1170.57 290.36 1168.89 291.56 1166.05 291.56C1161.89 291.56 1159.73 288.68 1159.61 283.88H1174.97V282.72ZM1165.89 276.28C1169.29 276.28 1171.25 278.48 1171.45 281.04H1159.81C1160.25 278.48 1162.25 276.28 1165.89 276.28ZM1193.1 294H1196.3V280.28C1196.3 275.76 1193.06 273.32 1187.98 273.32C1183.46 273.32 1180.26 275.48 1179.98 279.2H1183.38C1183.54 277.44 1185.06 276.28 1188.06 276.28C1191.58 276.28 1192.98 278.04 1192.98 280.48V281.28H1186.42C1180.82 281.28 1178.7 284.72 1178.7 287.96C1178.7 291.4 1181.3 294.52 1185.94 294.52C1188.82 294.52 1190.98 293.44 1192.22 291.88H1193.1V294ZM1186.78 291.56C1183.78 291.56 1182.1 290.12 1182.1 287.84C1182.1 285.44 1183.62 284 1186.94 284H1192.98V285.84C1192.98 289.04 1190.14 291.56 1186.78 291.56ZM1220.45 294V281.2C1220.45 276.36 1217.73 273.32 1212.77 273.32C1210.05 273.32 1207.81 274.44 1206.69 276H1205.81V273.84H1202.53V294H1205.93V283.08C1205.93 279.52 1208.33 276.36 1211.93 276.36C1215.33 276.36 1217.05 278.2 1217.05 281.92V294H1220.45ZM1241.4 268.6V264.92H1237.8V268.6H1241.4ZM1241.28 273.84H1237.88V294H1241.28V273.84ZM1265.88 294V281.2C1265.88 276.36 1263.16 273.32 1258.2 273.32C1255.48 273.32 1253.24 274.44 1252.12 276H1251.24V273.84H1247.96V294H1251.36V283.08C1251.36 279.52 1253.76 276.36 1257.36 276.36C1260.76 276.36 1262.48 278.2 1262.48 281.92V294H1265.88ZM1275.7 268.6V264.92H1272.1V268.6H1275.7ZM1275.58 273.84H1272.18V294H1275.58V273.84ZM1286.94 273.84V267.76H1283.54V273.84H1280.06V276.8H1283.54V288.36C1283.54 292.64 1286.1 294 1290.46 294H1292.02V290.96H1290.54C1287.82 290.96 1286.94 289.92 1286.94 287.88V276.8H1292.02V273.84H1286.94ZM1301.21 268.6V264.92H1297.61V268.6H1301.21ZM1301.09 273.84H1297.69V294H1301.09V273.84ZM1320.6 294H1323.8V280.28C1323.8 275.76 1320.56 273.32 1315.48 273.32C1310.96 273.32 1307.76 275.48 1307.48 279.2H1310.88C1311.04 277.44 1312.56 276.28 1315.56 276.28C1319.08 276.28 1320.48 278.04 1320.48 280.48V281.28H1313.92C1308.32 281.28 1306.2 284.72 1306.2 287.96C1306.2 291.4 1308.8 294.52 1313.44 294.52C1316.32 294.52 1318.48 293.44 1319.72 291.88H1320.6V294ZM1314.28 291.56C1311.28 291.56 1309.6 290.12 1309.6 287.84C1309.6 285.44 1311.12 284 1314.44 284H1320.48V285.84C1320.48 289.04 1317.64 291.56 1314.28 291.56ZM1330.03 264.92V294H1333.43V264.92H1330.03ZM1343.59 268.6V264.92H1339.99V268.6H1343.59ZM1343.47 273.84H1340.07V294H1343.47V273.84ZM1365.55 294V291.04H1353.19V290.16L1365.43 277.64V273.84H1349.47V276.8H1361.07V277.64L1348.79 290.16V294H1365.55ZM1388.21 282.72C1388.09 277.76 1385.21 273.32 1379.21 273.32C1373.09 273.32 1369.49 277.52 1369.49 283.72C1369.49 289.92 1373.01 294.52 1379.29 294.52C1384.29 294.52 1387.21 291.88 1387.85 288.44H1384.41C1383.81 290.36 1382.13 291.56 1379.29 291.56C1375.13 291.56 1372.97 288.68 1372.85 283.88H1388.21V282.72ZM1379.13 276.28C1382.53 276.28 1384.49 278.48 1384.69 281.04H1373.05C1373.49 278.48 1375.49 276.28 1379.13 276.28ZM1408.15 264.92V276H1407.27C1406.15 274.56 1404.31 273.32 1401.11 273.32C1395.55 273.32 1392.27 277.84 1392.27 283.92C1392.27 289.88 1395.55 294.52 1401.11 294.52C1404.31 294.52 1406.27 293.24 1407.39 291.84H1408.27V294H1411.55V264.92H1408.15ZM1401.87 291.56C1397.83 291.56 1395.67 288.4 1395.67 283.92C1395.67 279.44 1397.83 276.28 1401.87 276.28C1406.35 276.28 1408.19 279.96 1408.19 283.92C1408.19 287.88 1406.35 291.56 1401.87 291.56Z" fill="#274867"/>
<path d="M76.5605 652.48C78.6405 651.36 79.6805 649.24 79.6805 646.68C79.6805 642.76 76.6005 639.44 70.5605 639.44H58.1205V668H70.8805C77.4005 668 80.5605 664.52 80.5605 659.96C80.5605 657.04 78.9605 654.48 76.5605 653.36V652.48ZM61.7205 642.64H70.4005C73.2805 642.64 76.0405 643.76 76.0405 647C76.0405 650.52 73.6405 651.56 70.4805 651.56H61.7205V642.64ZM61.7205 664.8V654.72H70.6805C74.0405 654.72 76.9205 656 76.9205 659.68C76.9205 663.64 73.8805 664.8 70.6405 664.8H61.7205ZM103.287 656.72C103.167 651.76 100.287 647.32 94.2873 647.32C88.1673 647.32 84.5673 651.52 84.5673 657.72C84.5673 663.92 88.0873 668.52 94.3673 668.52C99.3673 668.52 102.287 665.88 102.927 662.44H99.4873C98.8873 664.36 97.2073 665.56 94.3673 665.56C90.2073 665.56 88.0473 662.68 87.9273 657.88H103.287V656.72ZM94.2073 650.28C97.6073 650.28 99.5673 652.48 99.7673 655.04H88.1273C88.5673 652.48 90.5673 650.28 94.2073 650.28ZM121.421 668H124.621V654.28C124.621 649.76 121.381 647.32 116.301 647.32C111.781 647.32 108.581 649.48 108.301 653.2H111.701C111.861 651.44 113.381 650.28 116.381 650.28C119.901 650.28 121.301 652.04 121.301 654.48V655.28H114.741C109.141 655.28 107.021 658.72 107.021 661.96C107.021 665.4 109.621 668.52 114.261 668.52C117.141 668.52 119.301 667.44 120.541 665.88H121.421V668ZM115.101 665.56C112.101 665.56 110.421 664.12 110.421 661.84C110.421 659.44 111.941 658 115.261 658H121.301V659.84C121.301 663.04 118.461 665.56 115.101 665.56ZM148.766 668V655.2C148.766 650.36 146.046 647.32 141.086 647.32C138.366 647.32 136.126 648.44 135.006 650H134.126V647.84H130.846V668H134.246V657.08C134.246 653.52 136.646 650.36 140.246 650.36C143.646 650.36 145.366 652.2 145.366 655.92V668H148.766ZM180.76 638.92V650H179.88C178.76 648.56 176.92 647.32 173.72 647.32C168.16 647.32 164.88 651.84 164.88 657.92C164.88 663.88 168.16 668.52 173.72 668.52C176.92 668.52 178.88 667.24 180 665.84H180.88V668H184.16V638.92H180.76ZM174.48 665.56C170.44 665.56 168.28 662.4 168.28 657.92C168.28 653.44 170.44 650.28 174.48 650.28C178.96 650.28 180.8 653.96 180.8 657.92C180.8 661.88 178.96 665.56 174.48 665.56ZM208.209 656.72C208.089 651.76 205.209 647.32 199.209 647.32C193.089 647.32 189.489 651.52 189.489 657.72C189.489 663.92 193.009 668.52 199.289 668.52C204.289 668.52 207.209 665.88 207.849 662.44H204.409C203.809 664.36 202.129 665.56 199.289 665.56C195.129 665.56 192.969 662.68 192.849 657.88H208.209V656.72ZM199.129 650.28C202.529 650.28 204.489 652.48 204.689 655.04H193.049C193.489 652.48 195.489 650.28 199.129 650.28ZM219.103 655.44C217.063 655.12 216.063 654.52 216.063 652.96C216.063 651.24 217.823 650.28 220.423 650.28C222.943 650.28 224.863 651.16 225.143 653.08H228.543C228.103 649.56 225.343 647.32 220.583 647.32C215.143 647.32 212.623 649.92 212.623 653.28C212.623 656.32 214.583 657.84 217.463 658.36L221.983 659.12C224.543 659.56 225.663 660.52 225.663 662.28C225.663 664.48 223.663 665.56 220.623 665.56C217.583 665.56 215.583 664.44 215.263 662.16H211.823C212.263 666 215.063 668.52 220.783 668.52C226.223 668.52 229.063 665.52 229.063 662.2C229.063 658.52 226.823 656.72 223.303 656.12L221.023 655.76L219.103 655.44ZM238.73 647.84V641.76H235.33V647.84H231.85V650.8H235.33V662.36C235.33 666.64 237.89 668 242.25 668H243.81V664.96H242.33C239.61 664.96 238.73 663.92 238.73 661.88V650.8H243.81V647.84H238.73ZM260.921 647.84H259.401C256.481 647.84 254.561 649 253.561 650.24H252.681V647.84H249.401V668H252.801V657.92C252.801 653.48 255.241 651.04 259.241 651.04H260.921V647.84ZM274.058 647.32C267.738 647.32 264.138 651.96 264.138 657.92C264.138 663.88 267.738 668.52 274.058 668.52C280.338 668.52 283.978 663.88 283.978 657.92C283.978 651.96 280.338 647.32 274.058 647.32ZM274.058 665.56C269.578 665.56 267.538 661.88 267.538 657.92C267.538 653.96 269.578 650.28 274.058 650.28C278.498 650.28 280.578 653.96 280.578 657.92C280.578 661.88 278.498 665.56 274.058 665.56ZM294.724 676L306.804 647.84H303.244L297.644 661.12H296.644L290.484 647.84H286.844L295.444 666.12L291.284 676H294.724ZM327.897 656.72C327.777 651.76 324.897 647.32 318.897 647.32C312.777 647.32 309.177 651.52 309.177 657.72C309.177 663.92 312.697 668.52 318.977 668.52C323.977 668.52 326.897 665.88 327.537 662.44H324.097C323.497 664.36 321.817 665.56 318.977 665.56C314.817 665.56 312.657 662.68 312.537 657.88H327.897V656.72ZM318.817 650.28C322.217 650.28 324.177 652.48 324.377 655.04H312.737C313.177 652.48 315.177 650.28 318.817 650.28ZM347.83 638.92V650H346.95C345.83 648.56 343.99 647.32 340.79 647.32C335.23 647.32 331.95 651.84 331.95 657.92C331.95 663.88 335.23 668.52 340.79 668.52C343.99 668.52 345.95 667.24 347.07 665.84H347.95V668H351.23V638.92H347.83ZM341.55 665.56C337.51 665.56 335.35 662.4 335.35 657.92C335.35 653.44 337.51 650.28 341.55 650.28C346.03 650.28 347.87 653.96 347.87 657.92C347.87 661.88 346.03 665.56 341.55 665.56Z" fill="#274867"/>
<path d="M638.447 626.48C640.527 625.36 641.567 623.24 641.567 620.68C641.567 616.76 638.487 613.44 632.447 613.44H620.007V642H632.767C639.287 642 642.447 638.52 642.447 633.96C642.447 631.04 640.847 628.48 638.447 627.36V626.48ZM623.607 616.64H632.287C635.167 616.64 637.927 617.76 637.927 621C637.927 624.52 635.527 625.56 632.367 625.56H623.607V616.64ZM623.607 638.8V628.72H632.567C635.927 628.72 638.807 630 638.807 633.68C638.807 637.64 635.767 638.8 632.527 638.8H623.607ZM665.174 630.72C665.054 625.76 662.174 621.32 656.174 621.32C650.054 621.32 646.454 625.52 646.454 631.72C646.454 637.92 649.974 642.52 656.254 642.52C661.254 642.52 664.174 639.88 664.814 636.44H661.374C660.774 638.36 659.094 639.56 656.254 639.56C652.094 639.56 649.934 636.68 649.814 631.88H665.174V630.72ZM656.094 624.28C659.494 624.28 661.454 626.48 661.654 629.04H650.014C650.454 626.48 652.454 624.28 656.094 624.28ZM683.308 642H686.508V628.28C686.508 623.76 683.268 621.32 678.188 621.32C673.668 621.32 670.468 623.48 670.188 627.2H673.588C673.748 625.44 675.268 624.28 678.268 624.28C681.788 624.28 683.188 626.04 683.188 628.48V629.28H676.628C671.028 629.28 668.908 632.72 668.908 635.96C668.908 639.4 671.508 642.52 676.148 642.52C679.028 642.52 681.188 641.44 682.428 639.88H683.308V642ZM676.988 639.56C673.988 639.56 672.308 638.12 672.308 635.84C672.308 633.44 673.828 632 677.148 632H683.188V633.84C683.188 637.04 680.348 639.56 676.988 639.56ZM710.653 642V629.2C710.653 624.36 707.933 621.32 702.973 621.32C700.253 621.32 698.013 622.44 696.893 624H696.013V621.84H692.733V642H696.133V631.08C696.133 627.52 698.533 624.36 702.133 624.36C705.533 624.36 707.253 626.2 707.253 629.92V642H710.653ZM731.607 616.6V612.92H728.007V616.6H731.607ZM731.487 621.84H728.087V642H731.487V621.84ZM743.763 629.44C741.723 629.12 740.723 628.52 740.723 626.96C740.723 625.24 742.483 624.28 745.083 624.28C747.603 624.28 749.523 625.16 749.803 627.08H753.203C752.763 623.56 750.003 621.32 745.243 621.32C739.803 621.32 737.283 623.92 737.283 627.28C737.283 630.32 739.243 631.84 742.123 632.36L746.643 633.12C749.203 633.56 750.323 634.52 750.323 636.28C750.323 638.48 748.323 639.56 745.283 639.56C742.243 639.56 740.243 638.44 739.923 636.16H736.483C736.923 640 739.723 642.52 745.443 642.52C750.883 642.52 753.723 639.52 753.723 636.2C753.723 632.52 751.483 630.72 747.963 630.12L745.683 629.76L743.763 629.44ZM769.523 621.84V634.64C769.523 639.48 772.243 642.52 777.203 642.52C779.923 642.52 782.163 641.4 783.283 639.84H784.163V642H787.443V621.84H784.043V632.76C784.043 636.4 781.603 639.48 778.043 639.48C774.643 639.48 772.923 637.64 772.923 633.92V621.84H769.523ZM799.583 629.44C797.543 629.12 796.543 628.52 796.543 626.96C796.543 625.24 798.303 624.28 800.903 624.28C803.423 624.28 805.343 625.16 805.623 627.08H809.023C808.583 623.56 805.823 621.32 801.063 621.32C795.623 621.32 793.103 623.92 793.103 627.28C793.103 630.32 795.063 631.84 797.943 632.36L802.463 633.12C805.023 633.56 806.143 634.52 806.143 636.28C806.143 638.48 804.143 639.56 801.103 639.56C798.063 639.56 796.063 638.44 795.743 636.16H792.303C792.743 640 795.543 642.52 801.263 642.52C806.703 642.52 809.543 639.52 809.543 636.2C809.543 632.52 807.303 630.72 803.783 630.12L801.503 629.76L799.583 629.44ZM832.01 630.72C831.89 625.76 829.01 621.32 823.01 621.32C816.89 621.32 813.29 625.52 813.29 631.72C813.29 637.92 816.81 642.52 823.09 642.52C828.09 642.52 831.01 639.88 831.65 636.44H828.21C827.61 638.36 825.93 639.56 823.09 639.56C818.93 639.56 816.77 636.68 816.65 631.88H832.01V630.72ZM822.93 624.28C826.33 624.28 828.29 626.48 828.49 629.04H816.85C817.29 626.48 819.29 624.28 822.93 624.28ZM851.943 612.92V624H851.063C849.943 622.56 848.103 621.32 844.903 621.32C839.343 621.32 836.063 625.84 836.063 631.92C836.063 637.88 839.343 642.52 844.903 642.52C848.103 642.52 850.063 641.24 851.183 639.84H852.063V642H855.343V612.92H851.943ZM845.663 639.56C841.623 639.56 839.463 636.4 839.463 631.92C839.463 627.44 841.623 624.28 845.663 624.28C850.143 624.28 851.983 627.96 851.983 631.92C851.983 635.88 850.143 639.56 845.663 639.56ZM650.146 670.32C646.946 670.32 645.066 671.56 643.986 673H643.106V661.92H639.706V691H642.986V688.84H643.866C644.986 690.24 646.946 691.52 650.146 691.52C655.706 691.52 658.986 686.88 658.986 680.92C658.986 674.84 655.706 670.32 650.146 670.32ZM649.386 688.56C644.906 688.56 643.066 684.88 643.066 680.92C643.066 676.96 644.906 673.28 649.386 673.28C653.426 673.28 655.586 676.44 655.586 680.92C655.586 685.4 653.426 688.56 649.386 688.56ZM669.755 699L681.835 670.84H678.275L672.675 684.12H671.675L665.515 670.84H661.875L670.475 689.12L666.315 699H669.755ZM701.651 670.84V664.76H698.251V670.84H694.771V673.8H698.251V685.36C698.251 689.64 700.811 691 705.171 691H706.731V687.96H705.251C702.531 687.96 701.651 686.92 701.651 684.88V673.8H706.731V670.84H701.651ZM730.243 691V678.2C730.243 673.36 727.523 670.32 722.603 670.32C719.883 670.32 717.683 671.44 716.603 673H715.723V661.92H712.323V691H715.723V680.08C715.723 676.52 718.123 673.36 721.723 673.36C725.123 673.36 726.843 675.28 726.843 678.92V691H730.243ZM753.944 679.72C753.824 674.76 750.944 670.32 744.944 670.32C738.824 670.32 735.224 674.52 735.224 680.72C735.224 686.92 738.744 691.52 745.024 691.52C750.024 691.52 752.944 688.88 753.584 685.44H750.144C749.544 687.36 747.864 688.56 745.024 688.56C740.864 688.56 738.704 685.68 738.584 680.88H753.944V679.72ZM744.864 673.28C748.264 673.28 750.224 675.48 750.424 678.04H738.784C739.224 675.48 741.224 673.28 744.864 673.28ZM783.21 691H786.41V677.28C786.41 672.76 783.17 670.32 778.09 670.32C773.57 670.32 770.37 672.48 770.09 676.2H773.49C773.65 674.44 775.17 673.28 778.17 673.28C781.69 673.28 783.09 675.04 783.09 677.48V678.28H776.53C770.93 678.28 768.81 681.72 768.81 684.96C768.81 688.4 771.41 691.52 776.05 691.52C778.93 691.52 781.09 690.44 782.33 688.88H783.21V691ZM776.89 688.56C773.89 688.56 772.21 687.12 772.21 684.84C772.21 682.44 773.73 681 777.05 681H783.09V682.84C783.09 686.04 780.25 688.56 776.89 688.56ZM802.315 673.28C806.355 673.28 808.515 676.44 808.515 680.92C808.515 685.4 806.355 688.56 802.315 688.56C797.835 688.56 795.995 684.88 795.995 680.92C795.995 676.96 797.835 673.28 802.315 673.28ZM792.635 670.84V699H796.035V688.84H796.915C797.995 690.28 799.875 691.52 803.075 691.52C808.635 691.52 811.915 687 811.915 680.92C811.915 674.96 808.635 670.32 803.075 670.32C799.875 670.32 797.915 671.6 796.795 673H795.915V670.84H792.635ZM826.925 673.28C830.965 673.28 833.125 676.44 833.125 680.92C833.125 685.4 830.965 688.56 826.925 688.56C822.445 688.56 820.605 684.88 820.605 680.92C820.605 676.96 822.445 673.28 826.925 673.28ZM817.245 670.84V699H820.645V688.84H821.525C822.605 690.28 824.485 691.52 827.685 691.52C833.245 691.52 836.525 687 836.525 680.92C836.525 674.96 833.245 670.32 827.685 670.32C824.485 670.32 822.525 671.6 821.405 673H820.525V670.84H817.245Z" fill="#274867"/>
</g>
<defs>
<clipPath id="clip0_1413_1514">
<rect width="1474" height="753" fill="white"/>
</clipPath>
</defs>
</svg>
